<?xml version="1.0" encoding="iso-8859-1"?>
<!-- Generator: Adobe Illustrator 19.0.0, SVG Export Plug-In . SVG Version: 6.00 Build 0)  -->
<svg version="1.1" id="Capa_1" xmlns="http://www.w3.org/2000/svg" xmlns:xlink="http://www.w3.org/1999/xlink" x="0px" y="0px"
	 viewBox="0 0 512 512" style="enable-background:new 0 0 512 512;" xml:space="preserve">
<path id="SVGCleanerId_0" style="fill:#F4A32C;" d="M506.478,228.585c-11.078-2.011-21.81-4.751-31.899-8.144
	c-73.954-24.87-115.76-85.293-129.515-163.078c-1.306-7.369-11.936-7.37-13.242,0c-15.986,90.386-69.19,154.305-160.955,171.337
	c-7.298,1.354-7.296,11.871,0.004,13.222c90.918,16.817,145.053,80.615,160.984,170.28c1.003,5.649,6.968,5.678,6.628,5.547
	c3.261-0.004,6.051-2.35,6.614-5.561c8.111-46.239,30.883-109.059,93.316-145.737c19.945-11.706,42.851-19.994,68.08-24.637
	c3.193-0.587,5.511-3.373,5.507-6.62C511.996,231.946,509.672,229.165,506.478,228.585z"/>
<g>
	<path id="SVGCleanerId_0_1_" style="fill:#F4A32C;" d="M506.478,228.585c-11.078-2.011-21.81-4.751-31.899-8.144
		c-73.954-24.87-115.76-85.293-129.515-163.078c-1.306-7.369-11.936-7.37-13.242,0c-15.986,90.386-69.19,154.305-160.955,171.337
		c-7.298,1.354-7.296,11.871,0.004,13.222c90.918,16.817,145.053,80.615,160.984,170.28c1.003,5.649,6.968,5.678,6.628,5.547
		c3.261-0.004,6.051-2.35,6.614-5.561c8.111-46.239,30.883-109.059,93.316-145.737c19.945-11.706,42.851-19.994,68.08-24.637
		c3.193-0.587,5.511-3.373,5.507-6.62C511.996,231.946,509.672,229.165,506.478,228.585z"/>
</g>
<path style="fill:#E89528;" d="M241.129,202.507c-21.543,13.171-45.431,21.583-70.262,26.192
	c-7.298,1.354-7.296,11.871,0.004,13.222c90.918,16.817,145.053,80.615,160.984,170.28c1.003,5.649,6.968,5.678,6.628,5.547
	c3.261-0.004,6.051-2.35,6.614-5.561c4.49-25.597,13.49-56.271,31.207-84.782C352.266,260.515,306.346,218.878,241.129,202.507z"/>
<path style="fill:#F7E7A1;" d="M211.126,403.012c-26.161-8.676-43.466-28.172-51.886-55.116c-1.513-4.837-6.612-4.784-6.418-4.717
	c-2.939,0-5.538,1.91-6.416,4.713c-8.158,26.042-25.23,45.966-51.887,55.093c-6.041,2.069-6.047,10.651,0.001,12.722
	c26.484,9.066,43.667,28.833,51.894,55.121c1.518,4.848,6.608,4.777,6.429,4.715c2.944-0.005,5.542-1.925,6.412-4.738
	c6.084-19.677,16.817-34.891,31.901-45.219c0.001-0.001,0.001-0.001,0.001-0.001c16.491-11.298,24.587-8.02,24.575-16.202
	C215.729,406.489,213.873,403.923,211.126,403.012z"/>
<path style="fill:#EAD786;" d="M121.326,388.419c-0.189-0.065-0.365-0.155-0.545-0.236c-7.735,6.646-16.613,11.499-26.261,14.803
	c-6.041,2.069-6.047,10.651,0.001,12.722c26.484,9.066,43.667,28.833,51.894,55.121c1.518,4.848,6.608,4.777,6.429,4.715
	c9.468-0.017,4.432-11.326,20.208-32.508C164.661,416.689,147.381,397.338,121.326,388.419z"/>
<path style="fill:#F4D44E;" d="M121.152,96.29c-26.264-8.71-43.495-28.281-51.887-55.116c-1.512-4.837-6.61-4.783-6.417-4.717
	c-2.939,0-5.538,1.91-6.416,4.713C48.291,67.157,31.255,87.115,4.545,96.264c-6.041,2.069-6.047,10.651,0.001,12.722
	c26.549,9.089,43.688,28.903,51.894,55.12c1.518,4.848,6.61,4.778,6.428,4.715c2.944-0.005,5.543-1.925,6.413-4.736
	c10.073-32.577,30.358-43.691,31.904-45.22c16.444-11.268,24.585-8.064,24.574-16.202C125.754,99.767,123.898,97.201,121.152,96.29z
	"/>
<path style="fill:#E8C842;" d="M28.756,83.146C10.22,97.965,0,93.822,0,102.625c0,2.875,1.827,5.43,4.546,6.36
	c26.549,9.089,43.688,28.903,51.894,55.12c1.518,4.848,6.61,4.778,6.428,4.715c8.995-0.016,4.673-10.519,18.945-30.788
	C67.12,92.671,32.076,85.316,28.756,83.146z"/>
<g>
</g>
<g>
</g>
<g>
</g>
<g>
</g>
<g>
</g>
<g>
</g>
<g>
</g>
<g>
</g>
<g>
</g>
<g>
</g>
<g>
</g>
<g>
</g>
<g>
</g>
<g>
</g>
<g>
</g>
</svg>
